<svg xmlns="http://www.w3.org/2000/svg" width="1100" height="350" viewBox="0 0 1100 350" role="img" aria-label="SaaS analytics pipeline architecture">
<rect width="1100" height="350" rx="14" fill="#0d1721"/>
<text x="36" y="46" font-family="sans-serif" font-size="14" letter-spacing="3" fill="#42d5ae">SAAS INTELLIGENCE / FROM SOURCE TO DECISION</text>
<g font-family="sans-serif" text-anchor="middle"><g fill="#152533" stroke="#365162">

<rect x="30" y="90" width="170" height="100" rx="8"/><rect x="245" y="90" width="170" height="100" rx="8"/>
<rect x="460" y="90" width="170" height="100" rx="8"/><rect x="675" y="90" width="170" height="100" rx="8"/><rect x="890" y="90" width="180" height="100" rx="8"/>
</g><g fill="#e5edf4" font-size="19"><text x="115" y="128">Source data</text><text x="330" y="128">Airflow + Python</text><text x="545" y="128">S3 + Snowflake</text><text x="760" y="128">dbt + SQL</text><text x="980" y="128">Power BI</text></g>
<g fill="#a8b9c8" font-size="12"><text x="115" y="155">Product · Billing · CRM</text><text x="115" y="174">Marketing</text><text x="330" y="155">Validate · Deduplicate</text><text x="330" y="174">Retry · Land</text><text x="545" y="155">Parquet · MERGE</text><text x="545" y="174">Local: DuckDB</text><text x="760" y="155">Star schema · Marts</text><text x="760" y="174">Reconcile · Test</text><text x="980" y="155">DAX · RLS · Cohorts</text><text x="980" y="174">Executive decisions</text></g></g>
<g stroke="#42d5ae" stroke-width="2" fill="none"><path d="M204 140h33m-8 -5 8 5-8 5M419 140h33m-8 -5 8 5-8 5M634 140h33m-8 -5 8 5-8 5M849 140h33m-8 -5 8 5-8 5"/></g>
<rect x="30" y="225" width="1040" height="78" rx="8" fill="#192e38"/><text x="55" y="256" font-family="sans-serif" font-size="17" fill="#e5edf4">Revenue quality + product engagement + customer retention</text><text x="55" y="280" font-family="sans-serif" font-size="13" fill="#a8b9c8">Reproducible synthetic data · explicit metric definitions · CI evidence · no cloud credentials needed for local demo</text></svg>
